HIERARCHY
ROOT Hips
{
    OFFSET 0.000000 0.000000 0.000000
    CHANNELS 6 Xposition Yposition Zposition Zrotation Xrotation Yrotation
        JOINT Chest
        {
            OFFSET -0.000000 26.978363 -0.000000
            CHANNELS 3 Zrotation Xrotation Yrotation
            JOINT Neck
            {
                OFFSET -0.000000 19.720629 0.000000
                CHANNELS 3 Zrotation Xrotation Yrotation
                JOINT Head
                {
                    OFFSET -0.000000 9.655557 0.000000
                    CHANNELS 3 Zrotation Xrotation Yrotation
                    End Site
                    {
                        OFFSET -0.000000 14.922232 0.000000
                    }
                }
            }
            JOINT LeftCollar
            {
                OFFSET -0.000000 19.720629 0.000000
                CHANNELS 3 Zrotation Xrotation Yrotation
                JOINT LeftShoulder
                {
                    OFFSET 17.555553 -0.000000 0.000000
                    CHANNELS 3 Zrotation Xrotation Yrotation
                    JOINT LeftElbow
                    {
                        OFFSET 22.589397 0.000000 0.000000
                        CHANNELS 3 Zrotation Xrotation Yrotation
                        JOINT LeftWrist
                        {
                            OFFSET 20.401022 0.000000 0.000000
                            CHANNELS 3 Zrotation Xrotation Yrotation
                            End Site
                            {
                                OFFSET 0.000000 -13.166666 0.000000
                            }
                        }
                    }
                }
            }
            JOINT RightCollar
            {
                OFFSET -0.000000 19.720629 0.000000
                CHANNELS 3 Zrotation Xrotation Yrotation
                JOINT RightShoulder
                {
                    OFFSET -17.555553 0.000000 0.000000
                    CHANNELS 3 Zrotation Xrotation Yrotation
                    JOINT RightElbow
                    {
                        OFFSET -22.589397 0.000000 0.000000
                        CHANNELS 3 Zrotation Xrotation Yrotation
                        JOINT RightWrist
                        {
                            OFFSET -20.401022 0.000000 0.000000
                            CHANNELS 3 Zrotation Xrotation Yrotation
                            End Site
                            {
                                OFFSET -0.000000 -13.166666 0.000000
                            }
                        }
                    }
                }
            }
        }
    JOINT LeftHip
    {
        OFFSET 10.533332 0.000000 0.000000
        CHANNELS 3 Zrotation Xrotation Yrotation
        JOINT LeftKnee
        {
            OFFSET -0.000000 -40.048210 0.000000
            CHANNELS 3 Zrotation Xrotation Yrotation
            JOINT LeftAnkle
            {
                OFFSET -0.000000 -36.098888 0.000000
                CHANNELS 3 Zrotation Xrotation Yrotation
                End Site
                {
                    OFFSET -0.000000 -4.388888 14.922232
                }
            }
        }
    }
    JOINT RightHip
    {
        OFFSET -10.533332 0.000000 0.000000
        CHANNELS 3 Zrotation Xrotation Yrotation
        JOINT RightKnee
        {
            OFFSET -0.000000 -40.048210 0.000000
            CHANNELS 3 Zrotation Xrotation Yrotation
            JOINT RightAnkle
            {
                OFFSET -0.000000 -36.098888 0.000000
                CHANNELS 3 Zrotation Xrotation Yrotation
                End Site
                {
                    OFFSET -0.000000 -4.388888 14.922232
                }
            }
        }
    }
}
MOTION
Frames:    6
Frame Time:    0.010000
44.862411    83.175400    -37.897812    -1.503544    0.470081    -60.355476    -0.724059    2.705864    0.002632    6.390717    0.575367    17.852779    -0.559382    6.672940    18.005322    -21.247385    0.057174    -0.155667    9.490816    60.492455    -66.466232    24.661882    -11.742080    -50.511158    129.358337    -9.757889    108.199806    15.107172    0.177079    1.546261    59.425640    12.634670    4.817315    31.388550    4.787348    17.021078    -39.321323    -76.050919    94.094421    8.292969    -21.452160    8.751151    9.385474    28.118500    2.696801    -12.699564    -4.473331    -5.274782    5.202079    3.961149    -5.592745    3.007634    0.988048    -11.945354    -2.587953    -8.147117    -5.888040    
44.861233    83.176018    -37.907398    -1.476195    0.488580    -60.373959    -0.735583    2.670110    0.005713    6.434919    0.659176    17.743761    -0.710286    4.655591    17.808777    -21.302670    0.096980    -0.344072    9.548965    60.540375    -66.443542    24.646646    -11.767974    -50.520599    129.384888    -9.703941    108.210236    15.113419    0.205226    1.413305    59.403492    12.617722    4.854918    31.420074    4.796898    16.796911    -36.190521    -76.605774    97.417381    8.301683    -21.479631    8.785728    9.418507    28.104557    2.632470    -12.656466    -4.468029    -5.379434    5.207739    3.917588    -5.599049    3.011803    1.009732    -11.879090    -2.661910    -8.152390    -5.928977    
44.843754    83.159027    -37.902390    -1.473060    0.480714    -60.402714    -0.759487    2.691342    -0.023427    6.420425    0.610507    17.772522    -0.661323    4.755681    17.834322    -21.270994    0.052573    -0.274294    9.613069    60.516968    -66.561958    24.740189    -11.809450    -50.429775    129.349289    -9.654908    108.255875    15.095318    0.204768    1.482087    59.410492    12.709612    4.851412    31.327614    4.798186    16.949768    -37.639149    -76.354866    95.910027    8.303233    -21.456430    8.749046    9.387493    28.097834    2.723288    -12.675900    -4.466867    -5.351580    5.209338    3.933798    -5.572178    3.002637    0.976116    -11.918782    -2.619152    -8.122551    -5.893470    
44.839954    83.161285    -37.906860    -1.463577    0.482954    -60.422676    -0.772482    2.691252    -0.030925    6.424656    0.613232    17.760416    -0.643335    4.785544    17.821554    -21.272190    0.052579    -0.299903    9.578204    60.516483    -66.522926    24.656191    -11.753797    -50.484509    129.460205    -9.575385    108.219147    15.086541    0.184753    1.477631    59.414104    12.766900    4.839935    31.275824    4.811685    16.999275    -37.462181    -76.411682    96.113853    8.309525    -21.454308    8.758845    9.386702    28.089861    2.729926    -12.671512    -4.466792    -5.365222    5.210196    3.927368    -5.562817    3.001316    0.970184    -11.914423    -2.623897    -8.113598    -5.888770    
44.836021    83.165466    -37.912231    -1.453604    0.484689    -60.447109    -0.786867    2.695192    -0.037100    6.427579    0.601464    17.765991    -0.617442    4.838655    17.825951    -21.268841    0.080539    -0.291262    9.535138    60.463459    -66.482277    24.554472    -11.720913    -50.537148    129.535934    -9.552659    108.130196    15.071249    0.218631    1.499683    59.415554    12.793469    4.867409    31.279461    4.776968    16.914459    -36.916420    -76.463028    96.735687    8.317335    -21.450039    8.776169    9.386348    28.080067    2.734854    -12.666358    -4.467288    -5.375739    5.210314    3.921359    -5.550178    3.000202    0.963704    -11.910999    -2.624718    -8.103907    -5.882452    
44.831684    83.170692    -37.918049    -1.443578    0.485940    -60.475681    -0.801131    2.697358    -0.041903    6.429142    0.599977    17.759943    -0.585305    4.887426    17.818443    -21.267431    0.052555    -0.314142    9.539383    60.467033    -66.497490    24.593901    -11.713895    -50.503841    129.493896    -9.586170    108.077919    15.057598    0.190287    1.499303    59.420189    12.870014    4.861488    31.197161    4.781176    17.046335    -37.066479    -76.443291    96.572029    8.326457    -21.443609    8.801087    9.387005    28.068617    2.737848    -12.660943    -4.468184    -5.382711    5.209836    3.915817    -5.534636    2.999376    0.957340    -11.908181    -2.622614    -8.094227    -5.874722    
